<svg width="0" height="0" class="hidden">
  <symbol xmlns="http://www.w3.org/2000/svg" viewBox="-1163 1657.697 56.693 56.693" id="github">
    <path clip-rule="evenodd" d="M-1134.66 1662.916c-13.6 0-24.63 11.027-24.63 24.63 0 10.882 7.057 20.115 16.844 23.371 1.23.228 1.683-.534 1.683-1.184 0-.587-.023-2.528-.034-4.586-6.852 1.49-8.298-2.906-8.298-2.906-1.12-2.847-2.734-3.604-2.734-3.604-2.235-1.529.168-1.497.168-1.497 2.473.173 3.776 2.538 3.776 2.538 2.196 3.765 5.761 2.677 7.167 2.047.221-1.591.86-2.678 1.564-3.293-5.47-.623-11.222-2.735-11.222-12.172 0-2.69.962-4.886 2.538-6.611-.256-.62-1.099-3.126.239-6.519 0 0 2.068-.661 6.774 2.525a23.627 23.627 0 016.165-.829c2.093.01 4.202.284 6.17.83 4.701-3.187 6.767-2.526 6.767-2.526 1.34 3.393.497 5.898.241 6.519 1.58 1.725 2.535 3.922 2.535 6.61 0 9.46-5.762 11.544-11.246 12.153.883.765 1.67 2.264 1.67 4.561 0 3.296-.028 5.948-.028 6.76 0 .655.443 1.423 1.691 1.181 9.782-3.26 16.83-12.49 16.83-23.368 0-13.603-11.027-24.63-24.63-24.63z" fill-rule="evenodd"></path>
    <path d="M-1149.961 1698.28c-.054.122-.247.159-.422.075-.18-.08-.28-.248-.221-.37.053-.126.245-.161.424-.077.179.08.28.249.219.371zm.998 1.112c-.118.109-.348.058-.504-.114-.16-.172-.19-.401-.071-.512.12-.108.343-.057.505.114.16.174.192.402.07.512zm.971 1.418c-.151.106-.398.007-.55-.212-.152-.219-.152-.482.003-.587.152-.105.396-.01.55.207.15.223.15.485-.003.592zm1.33 1.371c-.135.15-.423.109-.633-.094-.215-.199-.275-.48-.14-.63.137-.149.426-.107.638.095.214.198.279.482.135.63zm1.836.796c-.06.193-.337.28-.616.198-.279-.084-.46-.31-.405-.505.058-.194.337-.285.617-.198.279.084.461.309.404.505zm2.016.147c.006.203-.23.372-.523.375-.295.007-.533-.157-.536-.357 0-.205.23-.372.525-.377.293-.006.533.158.533.36zm1.875-.319c.035.198-.169.402-.46.456-.285.053-.55-.07-.586-.267-.036-.203.171-.406.457-.459.291-.05.552.069.589.27zm0 0"></path>
  </symbol>
  <symbol xmlns="http://www.w3.org/2000/svg" viewBox="0 0 56.7 56.7" id="instagram">
    <circle cx="28.1" cy="30" r="4.4"></circle>
    <path d="M33.6 19.2h-11c-1.6 0-3 .5-3.9 1.4-.9.9-1.4 2.3-1.4 3.9v11c0 1.6.5 3 1.5 4 1 .9 2.3 1.4 3.9 1.4h10.9c1.6 0 3-.5 3.9-1.4 1-.9 1.5-2.3 1.5-3.9v-11c0-1.6-.5-2.9-1.4-3.9-1-1-2.3-1.5-4-1.5zm-5.5 17.6c-3.8 0-6.8-3.1-6.8-6.8 0-3.8 3.1-6.8 6.8-6.8s6.9 3 6.9 6.8-3.1 6.8-6.9 6.8zm7.1-12.3c-.9 0-1.6-.7-1.6-1.6s.7-1.6 1.6-1.6 1.6.7 1.6 1.6-.7 1.6-1.6 1.6z"></path>
    <path d="M28.3 5.2c-13.6 0-24.6 11-24.6 24.6 0 13.6 11 24.6 24.6 24.6 13.6 0 24.6-11 24.6-24.6.1-13.6-11-24.6-24.6-24.6zm13.1 30.4c0 2.3-.8 4.3-2.2 5.7-1.4 1.4-3.4 2.1-5.6 2.1H22.7c-2.2 0-4.2-.7-5.6-2.1-1.5-1.4-2.2-3.4-2.2-5.7v-11c0-4.6 3.1-7.8 7.8-7.8h11c2.3 0 4.2.8 5.6 2.2 1.4 1.4 2.1 3.3 2.1 5.6v11z"></path>
  </symbol>
  <symbol xmlns="http://www.w3.org/2000/svg" viewBox="0 0 56.693 56.693" id="linkedin">
    <path d="M28.347 5.155c-13.6 0-24.625 11.025-24.625 24.625 0 13.602 11.025 24.625 24.625 24.625 13.598 0 24.623-11.023 24.623-24.625 0-13.599-11.026-24.625-24.623-24.625zm13.715 36.586c0 1.096-.91 1.982-2.031 1.982H16.613c-1.123 0-2.031-.887-2.031-1.982V18.052c0-1.094.908-1.982 2.031-1.982H40.03c1.121 0 2.031.889 2.031 1.982v23.689z"></path>
    <path d="M33.099 26.441c-2.201 0-3.188 1.209-3.74 2.061v.041h-.027a.223.223 0 00.027-.041v-1.768h-4.15c.055 1.17 0 12.484 0 12.484h4.15v-6.973c0-.375.027-.744.137-1.012.301-.744.984-1.52 2.129-1.52 1.504 0 2.104 1.146 2.104 2.824v6.68h4.15V32.06c-.001-3.836-2.05-5.619-4.78-5.619zm-12.235-5.729c-1.419 0-2.349.934-2.349 2.159 0 1.197.9 2.158 2.294 2.158h.027c1.447 0 2.348-.961 2.348-2.158-.027-1.225-.9-2.159-2.32-2.159zm-2.102 6.022h4.151v12.484h-4.151z"></path>
  </symbol>
  <symbol xmlns="http://www.w3.org/2000/svg" viewBox="0 0 56.693 56.693" id="twitter">
    <path d="M28.348 5.157c-13.6 0-24.625 11.027-24.625 24.625 0 13.6 11.025 24.623 24.625 24.623s24.623-11.023 24.623-24.623c0-13.598-11.024-24.625-24.623-24.625zm12.404 19.66c.013.266.018.533.018.803 0 8.201-6.242 17.656-17.656 17.656a17.572 17.572 0 01-9.513-2.787c.486.057.979.086 1.48.086a12.45 12.45 0 007.707-2.656 6.214 6.214 0 01-5.796-4.311 6.06 6.06 0 001.167.111c.566 0 1.114-.074 1.635-.217a6.21 6.21 0 01-4.979-6.084l.001-.08a6.184 6.184 0 002.811.777 6.204 6.204 0 01-2.761-5.166c0-1.137.306-2.204.84-3.12a17.618 17.618 0 0012.792 6.483 6.206 6.206 0 016.045-7.619 6.2 6.2 0 014.529 1.959 12.395 12.395 0 003.941-1.506 6.223 6.223 0 01-2.73 3.433 12.407 12.407 0 003.565-.977 12.537 12.537 0 01-3.096 3.215z"></path>
  </symbol>
  <symbol xmlns="http://www.w3.org/2000/svg" viewBox="0 0 32 32" id="menu">
    <path d="M4 10h24a2 2 0 000-4H4a2 2 0 000 4zm24 4H4a2 2 0 000 4h24a2 2 0 000-4zm0 8H4a2 2 0 000 4h24a2 2 0 000-4z"></path>
  </symbol>
</svg>